<svg height="512" viewBox="0 0 52 59" width="512" xmlns="http://www.w3.org/2000/svg"><g id="006---Male-User" fill="none"><path id="Shape" d="m18 37.32v6.68c-7.67 7.38-6.77 3.7-13.18 7.43-.82.46-4.65 2.57-4.76 2.57 10.57 6.62 41.34 6.59 51.87 0 .1 0-.31-.05-4.75-2.59-6.41-3.71-5.53-.05-13.18-7.41v-6.68z" fill="#fdd7ad"/><path id="Shape" d="m34 36v4c-2.9 2.94-3.07 5.72-6.3 5.72h-3.4c-3.23 0-3.4-2.78-6.3-5.72v-4z" fill="#f9c795"/><path id="Shape" d="m51.93 54c-4.7 2.94-13.08 4.24-18.61 4.69 5.18-1.61 6.37-8 6.61-10.08.6928161.3369715 1.4252155.5855841 2.18.74 3.17.58 5.79 2.65 9.82 4.65z" fill="#2c3e50"/><path id="Shape" d="m18.68 58.71c-5.53-.45-13.91-1.71-18.61-4.71.88-.44 3.54-1.9 4.75-2.59 4.39-2.56 4.54-1.52 7.25-2.8.24 2.06 1.43 8.49 6.61 10.1z" fill="#2c3e50"/><path id="Shape" d="m14.94 28c0 1-.09 2-.09 2.9-2.0580884-.7911584-3.4937549-2.6757125-3.71-4.87-.35-1.74-.58-5.38 1.18-5.06.677687-.0556042 1.3427581.2067294 1.8.71 0 1.9.82 4.2.82 6.32z" fill="#f9c795"/><path id="Shape" d="m37.06 28c0 3.12.83 5.74-2.55 8.81s-3.4 6.19-6.81 6.19h-3.4c-3.41 0-3.41-3.08-6.81-6.17s-2.55-5.68-2.55-8.83c0-2.5-.81-3.36-.93-8.53.25-3.18 1.28-7.35 5-7.35 0 0 0 4 9 5.95 0 0-2-5 2-3 3.0611297 1.7083564 5.7395879 4.0260566 7.87 6.81-.01 1.3-.82 4.3-.82 6.12z" fill="#fdd7ad"/><path id="Shape" d="m40.71 26.92c-.4377131 1.8475723-1.775681 3.350907-3.56 4 0-.94-.09-1.9-.09-2.9 0-2 .55-3.1.81-6.09 1.2332488 1.4830319 2.1947007 3.1723435 2.84 4.99z" fill="#f9c795"/><path id="Shape" d="m41 28c-1.17-6-10-13.55-12.64-13.35-1.7.12-.36 3.44-.36 3.44l-1.07-.26c-6.93-1.83-7.78-4.83-7.93-5.53-.0046977-.0532299-.0046977-.1067701 0-.16-3.71 0-4.74 4.17-5 7.35 0 .54 0 1 .06 1.49.06 1.62.36 0-1.75 0-.1037443-.009522-.2083393-.0027739-.31.02-.25-.79-2.79-9.1 1-13.82 2.2150307-2.69432395 5.5766266-4.17847227 9.06-4 .3143589.00652334.6281422.02989019.94.07h.07c.146571-.00749135.293429-.00749135.44 0 5.4-5.1 13.63-.75 17.49 6 4.27 7.32 0 18.75 0 18.75z" fill="#2c3e50"/><path id="Shape" d="m39.93 25.09c-2.69-5.28-9.42-10.61-11.57-10.44-1.65-.13-.64 3-.52 3.4l-.93-.26c-6.9-2-6.9-5.69-6.9-5.69-1 0-1 .34-1 0-3.71 0-4.74 4.17-5 7.35 0 .54 0 1 .06 1.49h-.15c-.22-.79-2.42-9.1.89-13.82 1.83443-2.72084115 4.9879008-4.24794566 8.26-4 .146571-.00749135.293429-.00749135.44 0 5.36-5.06 12.31-.74 15.66 6 2.54 5.12 1.6 12.09.76 15.97z" fill="#35495e"/></g></svg>